<mxfile host="app.diagrams.net" modified="2024-05-03T05:09:27.349Z" agent="Mozilla/5.0 (Windows NT 10.0; Win64; x64) AppleWebKit/537.36 (KHTML, like Gecko) Chrome/124.0.0.0 Safari/537.36" version="22.1.15" etag="cfTy0fnZ8Ev99fxWK144" type="github">
  <diagram name="Page-1" id="tqetK6CSH79DsMxp3hTY">
    <mxGraphModel>
      <root>
        <mxCell id="0" />
        <mxCell id="1" parent="0" />
      </root>
    </mxGraphModel>
  </diagram>
</mxfile>
